<svg height="512pt" viewBox="0 0 512.001 512" width="512pt" xmlns="http://www.w3.org/2000/svg"><path d="m99.820312 119.785156c33.023438 0 59.890626-26.867187 59.890626-59.894531 0-33.023437-26.867188-59.890625-59.890626-59.890625-33.023437 0-59.890624 26.867188-59.890624 59.890625 0 33.027344 26.867187 59.894531 59.890624 59.894531zm0-79.855468c11.007813 0 19.964844 8.953124 19.964844 19.960937 0 11.011719-8.957031 19.964844-19.964844 19.964844-11.007812 0-19.964843-8.953125-19.964843-19.964844 0-11.007813 8.957031-19.960937 19.964843-19.960937zm214.613282 235.613281h70.957031c8.441406 26.035156 32.914063 44.917969 61.726563 44.917969 35.777343 0 64.882812-29.105469 64.882812-64.882813s-29.105469-64.882813-64.882812-64.882813c-28.8125 0-53.285157 18.882813-61.726563 44.917969h-70.957031v-149.730469h71.296875c8.738281 25.519532 32.945312 43.921876 61.386719 43.921876 35.777343 0 64.882812-29.105469 64.882812-64.882813s-29.105469-64.8828125-64.882812-64.8828125c-29.179688 0-53.914063 19.3632815-62.046876 45.9179685h-110.566406v189.65625h-74.863281v-36.972656c0-33.023437-26.867187-59.890625-59.890625-59.890625h-79.859375c-33.023437 0-59.890625 26.867188-59.890625 59.890625v167.699219h39.929688v144.738281h39.925781v-184.667969h-39.925781v-127.769531c0-11.007813 8.953124-19.960937 19.960937-19.960937h79.859375c11.007812 0 19.960938 8.953124 19.960938 19.960937v127.769531h-39.925782v184.667969h39.925782v-144.738281h39.929687v-90.796875h74.863281v189.65625h110.5625c8.132813 26.554687 32.871094 45.917969 62.050782 45.917969 35.777343 0 64.882812-29.105469 64.882812-64.882813s-29.105469-64.882813-64.882812-64.882813c-28.441407 0-52.648438 18.402344-61.386719 43.921876h-71.296875zm132.683594-44.921875c13.761718 0 24.953124 11.195312 24.953124 24.957031s-11.191406 24.953125-24.953124 24.953125c-13.761719 0-24.957032-11.191406-24.957032-24.953125s11.195313-24.957031 24.957032-24.957031zm0-190.65625c13.761718 0 24.953124 11.195312 24.953124 24.957031s-11.191406 24.953125-24.953124 24.953125c-13.761719 0-24.957032-11.191406-24.957032-24.953125s11.195313-24.957031 24.957032-24.957031zm0 381.3125c13.761718 0 24.953124 11.195312 24.953124 24.957031s-11.191406 24.953125-24.953124 24.953125c-13.761719 0-24.957032-11.191406-24.957032-24.953125s11.195313-24.957031 24.957032-24.957031zm0 0"/></svg>